<svg data-v-423bf9ae="" xmlns="http://www.w3.org/2000/svg" viewBox="0 0 533 90" class="iconLeft"><!----><!----><!----><g data-v-423bf9ae="" id="4726d3aa-68a2-4abd-997d-a215c82c8034" fill="#000000" transform="matrix(4.50449493243461,0,0,4.50449493243461,106.5765748947228,8.198272479921513)"><path d="M10.67 3.88L10.67 3.88L9.86 4.48L9.86 4.48Q9.21 3.62 8.28 3.18L8.28 3.18L8.28 3.18Q7.36 2.73 6.25 2.73L6.25 2.73L6.25 2.73Q5.03 2.73 4.00 3.32L4.00 3.32L4.00 3.32Q2.97 3.90 2.40 4.88L2.40 4.88L2.40 4.88Q1.83 5.86 1.83 7.09L1.83 7.09L1.83 7.09Q1.83 8.94 3.10 10.07L3.10 10.07L3.10 10.07Q4.37 11.20 6.30 11.20L6.30 11.20L6.30 11.20Q8.44 11.20 9.86 9.54L9.86 9.54L10.67 10.14L10.67 10.14Q9.91 11.11 8.78 11.63L8.78 11.63L8.78 11.63Q7.64 12.16 6.25 12.16L6.25 12.16L6.25 12.16Q3.58 12.16 2.04 10.39L2.04 10.39L2.04 10.39Q0.76 8.89 0.76 7L0.76 7L0.76 7Q0.76 4.78 2.32 3.25L2.32 3.25L2.32 3.25Q3.88 1.73 6.23 1.73L6.23 1.73L6.23 1.73Q7.65 1.73 8.79 2.29L8.79 2.29L8.79 2.29Q9.94 2.86 10.67 3.88ZM16.08 4.22L16.08 4.22L16.08 4.22Q17.81 4.22 18.95 5.47L18.95 5.47L18.95 5.47Q19.98 6.62 19.98 8.18L19.98 8.18L19.98 8.18Q19.98 9.75 18.89 10.92L18.89 10.92L18.89 10.92Q17.79 12.09 16.08 12.09L16.08 12.09L16.08 12.09Q14.36 12.09 13.27 10.92L13.27 10.92L13.27 10.92Q12.17 9.75 12.17 8.18L12.17 8.18L12.17 8.18Q12.17 6.62 13.21 5.48L13.21 5.48L13.21 5.48Q14.35 4.22 16.08 4.22ZM16.08 5.16L16.08 5.16L16.08 5.16Q14.88 5.16 14.02 6.05L14.02 6.05L14.02 6.05Q13.16 6.94 13.16 8.20L13.16 8.20L13.16 8.20Q13.16 9.01 13.55 9.72L13.55 9.72L13.55 9.72Q13.95 10.42 14.62 10.80L14.62 10.80L14.62 10.80Q15.29 11.18 16.08 11.18L16.08 11.18L16.08 11.18Q16.88 11.18 17.55 10.80L17.55 10.80L17.55 10.80Q18.22 10.42 18.61 9.72L18.61 9.72L18.61 9.72Q19.00 9.01 19.00 8.20L19.00 8.20L19.00 8.20Q19.00 6.94 18.14 6.05L18.14 6.05L18.14 6.05Q17.27 5.16 16.08 5.16ZM22.36 5.71L22.36 5.71L22.36 5.71Q21.75 6.73 21.62 7.72L21.62 7.72L21.62 7.72Q21.62 14.84 21.62 14.83L21.62 14.83L22.58 14.83L22.58 10.64L22.58 10.64Q23.19 11.39 23.94 11.75L23.94 11.75L23.94 11.75Q24.69 12.12 25.59 12.12L25.59 12.12L25.59 12.12Q27.17 12.12 28.30 10.96L28.30 10.96L28.30 10.96Q29.43 9.81 29.43 8.16L29.43 8.16L29.43 8.16Q29.43 6.54 28.29 5.39L28.29 5.39L28.29 5.39Q27.16 4.25 25.56 4.25L25.56 4.25L25.56 4.25Q24.64 4.25 23.84 4.60L23.84 4.60L23.84 4.60Q23.04 4.95 22.36 5.71ZM25.48 5.17L25.48 5.17L25.48 5.17Q26.29 5.17 26.97 5.57L26.97 5.57L26.97 5.57Q27.65 5.97 28.05 6.68L28.05 6.68L28.05 6.68Q28.46 7.39 28.46 8.20L28.46 8.20L28.46 8.20Q28.46 8.99 28.05 9.72L28.05 9.72L28.05 9.72Q27.64 10.45 26.96 10.85L26.96 10.85L26.96 10.85Q26.27 11.25 25.49 11.25L25.49 11.25L25.49 11.25Q24.70 11.25 23.99 10.85L23.99 10.85L23.99 10.85Q23.28 10.45 22.89 9.76L22.89 9.76L22.89 9.76Q22.51 9.07 22.51 8.22L22.51 8.22L22.51 8.22Q22.51 6.92 23.37 6.04L23.37 6.04L23.37 6.04Q24.23 5.17 25.48 5.17ZM33.63 11.34L30.56 4.41L31.58 4.41L34.15 10.19L36.65 4.41L37.69 4.41L33.21 14.64L32.19 14.64L33.63 11.34ZM42.83 12.04L42.83 1.91L44.84 1.91L44.84 1.91Q46.59 1.91 47.19 2.06L47.19 2.06L47.19 2.06Q48.06 2.28 48.61 2.94L48.61 2.94L48.61 2.94Q49.16 3.60 49.16 4.61L49.16 4.61L49.16 4.61Q49.16 5.62 48.62 6.28L48.62 6.28L48.62 6.28Q48.08 6.94 47.14 7.16L47.14 7.16L47.14 7.16Q46.45 7.33 44.56 7.33L44.56 7.33L43.84 7.33L43.84 12.04L42.83 12.04ZM45.63 2.89L43.84 2.89L43.84 6.34L45.56 6.36L45.56 6.36Q46.59 6.36 47.08 6.17L47.08 6.17L47.08 6.17Q47.56 5.98 47.83 5.55L47.83 5.55L47.83 5.55Q48.11 5.13 48.11 4.61L48.11 4.61L48.11 4.61Q48.11 4.09 47.83 3.67L47.83 3.67L47.83 3.67Q47.56 3.25 47.11 3.07L47.11 3.07L47.11 3.07Q46.66 2.89 45.63 2.89L45.63 2.89ZM50.65 12.07L50.65 8.65L50.65 7.75L50.65 7.75Q50.76 7.08 50.96 6.65L50.96 6.65L50.96 6.65Q51.44 5.48 52.25 4.93L52.25 4.93L52.25 4.93Q53.05 4.38 53.59 4.38L53.59 4.38L53.59 4.38Q53.98 4.38 54.43 4.64L54.43 4.64L53.94 5.45L53.94 5.45Q53.30 5.22 52.67 5.82L52.67 5.82L52.67 5.82Q52.05 6.43 51.81 7.15L51.81 7.15L51.81 7.15Q51.63 7.79 51.63 9.54L51.63 9.54L51.63 12.07L50.65 12.07ZM58.54 4.22L58.54 4.22L58.54 4.22Q60.27 4.22 61.41 5.47L61.41 5.47L61.41 5.47Q62.45 6.62 62.45 8.18L62.45 8.18L62.45 8.18Q62.45 9.75 61.35 10.92L61.35 10.92L61.35 10.92Q60.26 12.09 58.54 12.09L58.54 12.09L58.54 12.09Q56.82 12.09 55.73 10.92L55.73 10.92L55.73 10.92Q54.64 9.75 54.64 8.18L54.64 8.18L54.64 8.18Q54.64 6.62 55.67 5.48L55.67 5.48L55.67 5.48Q56.81 4.22 58.54 4.22ZM58.54 5.16L58.54 5.16L58.54 5.16Q57.35 5.16 56.49 6.05L56.49 6.05L56.49 6.05Q55.62 6.94 55.62 8.20L55.62 8.20L55.62 8.20Q55.62 9.01 56.02 9.72L56.02 9.72L56.02 9.72Q56.41 10.42 57.08 10.80L57.08 10.80L57.08 10.80Q57.75 11.18 58.54 11.18L58.54 11.18L58.54 11.18Q59.35 11.18 60.02 10.80L60.02 10.80L60.02 10.80Q60.68 10.42 61.07 9.72L61.07 9.72L61.07 9.72Q61.46 9.01 61.46 8.20L61.46 8.20L61.46 8.20Q61.46 6.94 60.60 6.05L60.60 6.05L60.60 6.05Q59.74 5.16 58.54 5.16ZM71.16 10.63L71.16 10.63L71.16 10.63Q71.77 9.60 71.89 8.61L71.89 8.61L71.89 8.61Q71.89 1.50 71.89 1.51L71.89 1.51L70.94 1.51L70.94 5.69L70.94 5.69Q70.33 4.95 69.58 4.58L69.58 4.58L69.58 4.58Q68.82 4.22 67.93 4.22L67.93 4.22L67.93 4.22Q66.34 4.22 65.21 5.37L65.21 5.37L65.21 5.37Q64.09 6.53 64.09 8.18L64.09 8.18L64.09 8.18Q64.09 9.80 65.22 10.94L65.22 10.94L65.22 10.94Q66.36 12.09 67.96 12.09L67.96 12.09L67.96 12.09Q68.87 12.09 69.68 11.74L69.68 11.74L69.68 11.74Q70.48 11.39 71.16 10.63ZM68.04 11.17L68.04 11.17L68.04 11.17Q67.22 11.17 66.54 10.77L66.54 10.77L66.54 10.77Q65.86 10.37 65.46 9.66L65.46 9.66L65.46 9.66Q65.06 8.95 65.06 8.14L65.06 8.14L65.06 8.14Q65.06 7.35 65.46 6.62L65.46 6.62L65.46 6.62Q65.87 5.89 66.56 5.49L66.56 5.49L66.56 5.49Q67.25 5.09 68.02 5.09L68.02 5.09L68.02 5.09Q68.82 5.09 69.53 5.49L69.53 5.49L69.53 5.49Q70.24 5.89 70.62 6.58L70.62 6.58L70.62 6.58Q71.00 7.27 71.00 8.11L71.00 8.11L71.00 8.11Q71.00 9.42 70.14 10.29L70.14 10.29L70.14 10.29Q69.28 11.17 68.04 11.17ZM73.74 8.02L73.74 4.41L74.71 4.41L74.71 7.91L74.71 7.91Q74.71 9.19 74.85 9.67L74.85 9.67L74.85 9.67Q75.05 10.36 75.63 10.76L75.63 10.76L75.63 10.76Q76.21 11.16 77.03 11.16L77.03 11.16L77.03 11.16Q77.83 11.16 78.39 10.77L78.39 10.77L78.39 10.77Q78.96 10.38 79.17 9.75L79.17 9.75L79.17 9.75Q79.32 9.32 79.32 7.91L79.32 7.91L79.32 4.41L80.30 4.41L80.30 8.09L80.30 8.09Q80.30 9.65 79.94 10.43L79.94 10.43L79.94 10.43Q79.57 11.21 78.85 11.65L78.85 11.65L78.85 11.65Q78.12 12.09 77.03 12.09L77.03 12.09L77.03 12.09Q75.93 12.09 75.20 11.65L75.20 11.65L75.20 11.65Q74.46 11.21 74.10 10.41L74.10 10.41L74.10 10.41Q73.74 9.62 73.74 8.02L73.74 8.02ZM89.71 5.97L89.71 5.97L88.94 6.45L88.94 6.45Q87.95 5.12 86.24 5.12L86.24 5.12L86.24 5.12Q84.86 5.12 83.96 6.00L83.96 6.00L83.96 6.00Q83.05 6.88 83.05 8.15L83.05 8.15L83.05 8.15Q83.05 8.97 83.47 9.70L83.47 9.70L83.47 9.70Q83.88 10.42 84.61 10.82L84.61 10.82L84.61 10.82Q85.33 11.22 86.24 11.22L86.24 11.22L86.24 11.22Q87.90 11.22 88.94 9.91L88.94 9.91L89.71 10.40L89.71 10.40Q89.17 11.21 88.26 11.65L88.26 11.65L88.26 11.65Q87.36 12.09 86.19 12.09L86.19 12.09L86.19 12.09Q84.42 12.09 83.25 10.96L83.25 10.96L83.25 10.96Q82.08 9.84 82.08 8.22L82.08 8.22L82.08 8.22Q82.08 7.13 82.63 6.20L82.63 6.20L82.63 6.20Q83.18 5.26 84.13 4.74L84.13 4.74L84.13 4.74Q85.09 4.22 86.28 4.22L86.28 4.22L86.28 4.22Q87.01 4.22 87.71 4.44L87.71 4.44L87.71 4.44Q88.40 4.67 88.89 5.03L88.89 5.03L88.89 5.03Q89.37 5.40 89.71 5.97ZM94.25 11.03L94.25 11.03L94.25 11.03Q93.54 11.41 92.86 11.09L92.86 11.09L92.86 11.09Q92.03 10.45 92.07 9.28L92.07 9.28L92.07 6.10L93.84 6.10L93.84 5.28L92.06 5.28L92.06 1.65L91.09 1.65L91.09 9.44L91.09 9.44Q91.08 10.26 91.46 10.94L91.46 10.94L91.46 10.94Q92.11 12.03 93.21 12.09L93.21 12.09L93.21 12.09Q93.80 12.11 94.55 11.83L94.55 11.83L94.55 11.83Q94.44 11.54 94.25 11.03Z"></path></g><defs data-v-423bf9ae=""><linearGradient data-v-423bf9ae="" gradientTransform="rotate(25)" id="82e97f92-ccc6-4b11-a1c8-dec77242f919" x1="0%" y1="0%" x2="100%" y2="0%"><stop data-v-423bf9ae="" offset="0%" style="stop-color: rgb(57, 94, 202); stop-opacity: 1;"></stop><stop data-v-423bf9ae="" offset="100%" style="stop-color: rgb(132, 139, 216); stop-opacity: 1;"></stop></linearGradient></defs><g data-v-423bf9ae="" id="4db0e362-b290-4125-987e-21acd3d8e602" transform="matrix(2.8125,0,0,2.8125,0,0)" stroke="none" fill="url(#82e97f92-ccc6-4b11-a1c8-dec77242f919)"><path d="M9.382 8.675h13.943v13.943L32 31.293V0H.707zM22.618 23.325H8.675V9.382L0 .707V32h31.293z"></path></g><!----></svg>