<svg xmlns="http://www.w3.org/2000/svg" width="738" height="594" viewBox="0 0 738 594" version="1.1"><path d="M 278.344 238.639 C 278.694 239.266, 278.994 283.544, 279.010 337.036 C 279.026 390.528, 279.264 434.069, 279.539 433.794 C 279.814 433.519, 280.026 389.709, 280.010 336.437 C 279.988 265.398, 279.677 239.303, 278.844 238.540 C 278.045 237.810, 277.896 237.839, 278.344 238.639 M 508.803 381.746 C 514.470 381.925, 523.470 381.924, 528.803 381.745 C 534.136 381.565, 529.500 381.419, 518.500 381.420 C 507.500 381.421, 503.136 381.568, 508.803 381.746 M 320 390.960 C 316.538 394.714, 315.881 396.256, 319.011 393.282 C 320.874 391.512, 322.196 389.900, 321.949 389.699 C 321.702 389.498, 320.825 390.065, 320 390.960 M 511.199 503.744 C 515.984 503.927, 524.084 503.928, 529.199 503.746 C 534.315 503.564, 530.400 503.414, 520.500 503.413 C 510.600 503.412, 506.415 503.561, 511.199 503.744 M 297.500 558.444 C 299.150 559.250, 301.625 559.884, 303 559.853 C 305.301 559.800, 305.261 559.730, 302.500 558.974 C 295.241 556.985, 294.313 556.887, 297.500 558.444" stroke="none" fill="#5c64dc" fill-rule="evenodd"/><path d="M 240.473 12.382 C 239.388 13.141, 238.275 13.780, 238 13.800 C 235.184 14.006, 232.142 15.420, 232.671 16.277 C 233.076 16.933, 232.719 17.106, 231.737 16.729 C 230.862 16.394, 229.612 16.762, 228.960 17.548 C 228.307 18.335, 227.374 18.731, 226.887 18.430 C 226.399 18.129, 226 18.359, 226 18.941 C 226 19.523, 225.662 19.929, 225.250 19.841 C 223.335 19.436, 214 23.752, 214 25.043 C 214 25.634, 213.546 25.837, 212.991 25.494 C 211.560 24.610, 207.852 25.951, 208.560 27.097 C 208.884 27.621, 208.778 27.985, 208.324 27.906 C 207.871 27.828, 207.162 27.873, 206.750 28.007 C 206.338 28.140, 205.662 28.311, 205.250 28.387 C 202.987 28.799, 198 31.368, 198 32.121 C 198 32.605, 196.975 33, 195.723 33 C 194.470 33, 192.332 33.779, 190.973 34.732 C 189.613 35.684, 188.275 36.400, 188 36.323 C 186.727 35.965, 180.918 39.059, 181.400 39.838 C 181.699 40.323, 180.830 40.596, 179.467 40.447 C 178.105 40.297, 177.244 40.586, 177.554 41.088 C 177.864 41.589, 177.191 42, 176.059 42 C 174.927 42, 174 42.400, 174 42.889 C 174 43.378, 173.213 43.715, 172.250 43.639 C 171.287 43.563, 170.607 44.046, 170.738 44.714 C 170.877 45.421, 170.347 45.687, 169.470 45.350 C 167.576 44.623, 161.836 46.925, 162.572 48.116 C 162.872 48.602, 161.940 49, 160.500 49 C 158.776 49, 158.126 49.394, 158.595 50.155 C 159.033 50.862, 158.870 51.038, 158.175 50.608 C 157.552 50.223, 156.020 50.475, 154.771 51.168 C 153.522 51.862, 152.275 52.506, 152 52.599 C 151.725 52.693, 150.488 53.098, 149.250 53.501 C 148.012 53.904, 147 54.631, 147 55.117 C 147 55.602, 146.100 56, 145 56 C 143.900 56, 143 56.487, 143 57.083 C 143 57.679, 142.438 57.975, 141.750 57.741 C 140.530 57.325, 139.165 57.888, 128.158 63.349 C 125.219 64.807, 122.237 66, 121.530 66 C 120.823 66, 119.730 66.621, 119.100 67.379 C 118.470 68.138, 116.585 69.033, 114.911 69.368 C 112.913 69.767, 112.118 70.383, 112.598 71.158 C 113.103 71.975, 112.775 72.128, 111.537 71.653 C 110.388 71.212, 109.227 71.599, 108.299 72.733 C 107.503 73.705, 107.118 73.968, 107.443 73.318 C 107.826 72.552, 106.973 72.666, 105.017 73.641 C 103.358 74.469, 102 75.549, 102 76.042 C 102 76.534, 101.397 76.706, 100.660 76.423 C 99.923 76.140, 98.747 76.600, 98.047 77.443 C 97.346 78.287, 96.421 78.760, 95.991 78.494 C 95.560 78.228, 93.924 78.680, 92.354 79.499 C 90.784 80.318, 88.938 80.990, 88.250 80.994 C 87.563 80.997, 87 81.450, 87 82 C 87 82.550, 86.155 83, 85.122 83 C 84.090 83, 82.685 83.675, 82 84.500 C 81.315 85.325, 79.659 86, 78.319 86 C 76.968 86, 76.154 86.440, 76.493 86.989 C 76.843 87.555, 76.442 87.723, 75.552 87.382 C 74.698 87.054, 74 87.228, 74 87.768 C 74 88.308, 72.704 89.009, 71.121 89.326 C 69.537 89.643, 67.620 90.523, 66.862 91.281 C 66.103 92.040, 64.924 92.475, 64.241 92.247 C 63.558 92.019, 63 92.347, 63 92.976 C 63 93.604, 62.663 93.918, 62.250 93.673 C 61.837 93.428, 60.069 94.003, 58.319 94.951 C 55.214 96.633, 55.185 96.714, 57.081 98.337 C 58.149 99.252, 59.666 100, 60.452 100 C 61.239 100, 62.179 100.481, 62.542 101.068 C 62.905 101.656, 63.820 101.899, 64.575 101.610 C 65.330 101.320, 66.337 101.780, 66.813 102.631 C 67.290 103.483, 67.977 104.139, 68.340 104.090 C 68.703 104.040, 69.112 104.034, 69.250 104.077 C 69.388 104.119, 70.327 104.310, 71.338 104.501 C 72.348 104.692, 73.959 105.558, 74.916 106.424 C 77.003 108.313, 78.369 108.487, 77.472 106.750 C 77.117 106.063, 77.653 106.491, 78.663 107.701 C 79.673 108.912, 81.814 110.133, 83.419 110.416 C 85.024 110.698, 86.599 111.315, 86.919 111.787 C 87.413 112.517, 90.320 114.040, 92 114.449 C 92.275 114.516, 93.522 115.138, 94.771 115.832 C 96.020 116.525, 97.435 116.849, 97.916 116.552 C 98.397 116.255, 99.073 116.748, 99.419 117.649 C 99.764 118.549, 100.331 119.003, 100.677 118.656 C 101.023 118.310, 102.744 118.915, 104.500 120 C 106.256 121.085, 107.987 121.679, 108.347 121.320 C 108.706 120.961, 109 121.240, 109 121.940 C 109 122.641, 109.638 122.969, 110.417 122.670 C 111.197 122.371, 112.095 122.806, 112.414 123.637 C 112.733 124.468, 113.778 124.997, 114.735 124.812 C 115.693 124.628, 117.270 125.270, 118.239 126.239 C 119.207 127.207, 120.900 128, 122 128 C 123.100 128, 124 128.477, 124 129.059 C 124 129.641, 124.419 129.859, 124.931 129.543 C 125.443 129.226, 126.149 129.432, 126.500 130 C 126.851 130.568, 127.526 130.793, 128 130.500 C 128.474 130.207, 129.162 130.452, 129.528 131.045 C 130.250 132.213, 134.324 134.082, 137.448 134.677 C 138.519 134.881, 140.206 135.782, 141.198 136.679 C 142.189 137.576, 143 137.945, 143 137.500 C 143 137.055, 143.787 137.366, 144.750 138.193 C 147.426 140.491, 149.438 141.517, 148.595 140.155 C 148.203 139.520, 148.359 139, 148.941 139 C 149.523 139, 150 139.417, 150 139.927 C 150 141.097, 155.977 144.132, 157.017 143.490 C 157.442 143.227, 158.048 143.684, 158.364 144.506 C 158.679 145.328, 160.050 146, 161.410 146 C 162.769 146, 164.142 146.422, 164.461 146.937 C 165.419 148.486, 171.142 151, 173.713 151 C 175.295 151, 175.870 151.401, 175.395 152.170 C 174.902 152.968, 175.228 153.126, 176.424 152.668 C 177.538 152.240, 178.781 152.683, 179.838 153.885 C 181.676 155.975, 187.727 158.287, 189.115 157.429 C 189.602 157.128, 190 157.359, 190 157.941 C 190 158.523, 190.527 159, 191.171 159 C 191.815 159, 193.139 159.721, 194.113 160.602 C 195.087 161.483, 196.991 162.271, 198.346 162.352 C 199.700 162.433, 200.614 162.815, 200.376 163.200 C 200.138 163.585, 200.857 164.388, 201.972 164.985 C 203.087 165.582, 204 165.774, 204 165.413 C 204 165.051, 204.675 165.315, 205.500 166 C 206.325 166.685, 207 166.932, 207 166.550 C 207 166.168, 208.178 166.781, 209.618 167.914 C 211.057 169.046, 212.632 169.727, 213.118 169.427 C 213.603 169.127, 214 169.359, 214 169.941 C 214 170.523, 214.942 171, 216.092 171 C 217.243 171, 219.321 171.894, 220.710 172.986 C 222.099 174.079, 223.632 174.727, 224.118 174.427 C 224.603 174.127, 225 174.359, 225 174.941 C 225 175.523, 225.691 176, 226.535 176 C 227.380 176, 229.180 176.727, 230.535 177.615 C 231.891 178.503, 233 178.921, 233 178.544 C 233 178.166, 233.711 178.568, 234.581 179.438 C 235.450 180.307, 236.544 180.782, 237.012 180.493 C 237.480 180.204, 239.531 181.099, 241.571 182.483 C 243.610 183.868, 246.004 185.034, 246.890 185.077 C 247.775 185.119, 249.336 185.311, 250.358 185.504 C 252.965 185.996, 255 185.045, 255 183.334 C 255 182.535, 255.449 182.160, 255.998 182.499 C 256.547 182.838, 257.949 182.449, 259.113 181.633 C 260.277 180.818, 261.849 180.389, 262.606 180.679 C 263.364 180.970, 264.263 180.478, 264.605 179.586 C 264.948 178.694, 265.739 178.026, 266.364 178.101 C 268.949 178.411, 270.079 177.937, 269.395 176.830 C 268.912 176.048, 269.213 175.868, 270.304 176.286 C 271.202 176.631, 272.202 176.482, 272.527 175.956 C 272.852 175.430, 273.936 175, 274.937 175 C 275.937 175, 277.315 174.325, 278 173.500 C 278.685 172.675, 280.090 172, 281.122 172 C 282.155 172, 283 171.523, 283 170.941 C 283 170.359, 283.450 170.160, 284 170.500 C 284.550 170.840, 285 170.615, 285 170 C 285 169.385, 285.399 169.129, 285.887 169.430 C 286.374 169.731, 287.307 169.335, 287.960 168.548 C 288.612 167.762, 289.730 167.343, 290.444 167.617 C 291.158 167.891, 292.443 167.414, 293.300 166.558 C 294.156 165.701, 295.789 165, 296.929 165 C 298.068 165, 299 164.550, 299 164 C 299 163.450, 299.472 163, 300.048 163 C 300.625 163, 302.959 162.100, 305.236 161 C 307.513 159.900, 309.966 159, 310.688 159 C 311.410 159, 312.007 158.213, 312.015 157.250 C 312.028 155.754, 312.172 155.718, 313 157 C 313.704 158.090, 313.974 158.142, 313.985 157.191 C 313.993 156.471, 314.450 156.160, 315 156.500 C 315.550 156.840, 316 156.641, 316 156.059 C 316 155.477, 317.087 155, 318.417 155 C 319.746 155, 320.992 154.525, 321.185 153.946 C 321.488 153.036, 323.351 152.356, 326.309 152.077 C 326.754 152.034, 326.821 151.520, 326.459 150.933 C 326.096 150.346, 326.407 149.950, 327.150 150.052 C 330.032 150.447, 332.091 149.956, 331.507 149.011 C 331.144 148.424, 331.593 148.290, 332.612 148.681 C 333.868 149.164, 334.109 148.985, 333.510 148.015 C 332.965 147.135, 333.077 146.930, 333.844 147.403 C 334.478 147.795, 335.997 147.415, 337.221 146.558 C 338.444 145.701, 340.271 145, 341.282 145 C 342.328 145, 342.834 144.541, 342.459 143.933 C 342.096 143.346, 342.407 142.945, 343.150 143.042 C 345.549 143.353, 348.997 141.804, 348.325 140.716 C 347.921 140.063, 348.294 139.899, 349.304 140.286 C 350.202 140.631, 351.202 140.482, 351.527 139.956 C 351.852 139.430, 352.943 139, 353.952 139 C 354.961 139, 356.063 138.278, 356.401 137.396 C 356.753 136.481, 357.657 136.038, 358.508 136.365 C 359.329 136.680, 360 136.592, 360 136.170 C 360 135.747, 361.688 134.769, 363.750 133.995 C 368.367 132.264, 368.033 132.383, 370.739 131.502 C 371.970 131.101, 372.734 130.379, 372.437 129.898 C 372.139 129.417, 372.594 129.291, 373.448 129.618 C 374.304 129.947, 375 129.691, 375 129.048 C 375 128.407, 375.454 128.163, 376.010 128.506 C 376.565 128.849, 378.136 128.252, 379.501 127.178 C 380.866 126.104, 383.585 124.925, 385.544 124.558 C 387.503 124.190, 389.344 123.268, 389.635 122.508 C 389.927 121.748, 390.745 121.349, 391.454 121.621 C 392.162 121.893, 393.475 121.382, 394.371 120.486 C 395.267 119.590, 396 119.166, 396 119.544 C 396 119.921, 397.125 119.493, 398.500 118.592 C 399.875 117.691, 401 117.185, 401 117.467 C 401 117.749, 401.878 117.228, 402.952 116.309 C 404.026 115.390, 405.929 114.481, 407.181 114.290 C 410.021 113.857, 417 110.822, 417 110.020 C 417 109.693, 417.982 109.352, 419.183 109.261 C 420.384 109.171, 421.762 108.390, 422.245 107.527 C 422.728 106.664, 423.544 106.218, 424.060 106.537 C 424.575 106.855, 425.997 106.415, 427.221 105.558 C 428.444 104.701, 430.271 104, 431.282 104 C 432.292 104, 432.843 103.555, 432.507 103.011 C 432.157 102.445, 432.558 102.277, 433.448 102.618 C 434.302 102.946, 435 102.716, 435 102.107 C 435 101.498, 436.012 100.993, 437.250 100.985 C 439.099 100.972, 439.233 100.786, 438 99.940 C 436.753 99.084, 436.837 98.937, 438.500 99.070 C 439.600 99.158, 440.837 99.122, 441.250 98.990 C 441.663 98.858, 442.525 98.694, 443.167 98.625 C 446.541 98.264, 444.200 95.224, 440 94.514 C 439.725 94.467, 438.478 93.862, 437.229 93.168 C 435.980 92.475, 434.448 92.223, 433.825 92.608 C 433.130 93.038, 432.967 92.862, 433.405 92.155 C 433.842 91.447, 433.418 90.988, 432.309 90.968 C 431.314 90.951, 429.646 90.290, 428.603 89.500 C 427.559 88.710, 426.322 88.301, 425.853 88.591 C 425.384 88.881, 425 88.593, 425 87.952 C 425 87.311, 424.391 87.020, 423.647 87.305 C 422.903 87.591, 421.525 86.926, 420.585 85.829 C 419.646 84.731, 418.230 84.082, 417.438 84.385 C 416.647 84.689, 416 84.611, 416 84.213 C 416 83.814, 414.538 82.872, 412.750 82.120 C 410.962 81.367, 408.208 80.139, 406.629 79.392 C 405.049 78.644, 403.359 78.278, 402.871 78.579 C 402.384 78.880, 401.717 78.426, 401.388 77.569 C 401.059 76.712, 400.388 76.260, 399.895 76.565 C 399.403 76.869, 399 76.641, 399 76.059 C 399 75.477, 398.663 75.096, 398.250 75.212 C 397.837 75.329, 396.520 74.881, 395.322 74.216 C 394.125 73.551, 392.325 73.273, 391.322 73.598 C 389.968 74.037, 389.845 73.942, 390.845 73.227 C 391.877 72.488, 391.588 72.113, 389.600 71.614 C 388.175 71.257, 386.669 70.923, 386.254 70.872 C 385.840 70.822, 384.375 69.999, 383 69.045 C 379.911 66.900, 369.448 61.972, 366.974 61.495 C 365.970 61.302, 363.990 60.384, 362.574 59.457 C 361.158 58.529, 360 58.116, 360 58.540 C 360 58.963, 359.139 58.531, 358.088 57.579 C 357.036 56.628, 355.573 55.754, 354.838 55.637 C 354.102 55.521, 350.177 53.755, 346.116 51.713 C 342.054 49.671, 337.929 48, 336.949 48 C 335.969 48, 335.017 47.591, 334.833 47.092 C 334.650 46.592, 333.600 46.029, 332.500 45.842 C 331.400 45.654, 330.275 45.268, 330 44.984 C 329.345 44.307, 316.215 38, 315.462 38 C 315.143 38, 315.203 38.520, 315.595 39.155 C 316.041 39.876, 315.869 40.037, 315.138 39.585 C 314.494 39.187, 314.226 38.443, 314.543 37.931 C 314.859 37.419, 314.754 36.967, 314.309 36.926 C 311.255 36.645, 308.500 35.809, 308.008 35.014 C 307.103 33.549, 300.344 30.998, 299.467 31.790 C 299.034 32.180, 299.003 31.938, 299.399 31.250 C 299.794 30.562, 299.696 30, 299.181 30 C 298.666 30, 296.502 29.241, 294.372 28.314 C 292.242 27.387, 290.163 26.712, 289.750 26.814 C 289.337 26.916, 289 26.550, 289 26 C 289 25.450, 288.528 25, 287.952 25 C 287.375 25, 285.064 24.111, 282.816 23.025 C 280.567 21.939, 278.370 21.271, 277.933 21.541 C 277.496 21.812, 276.865 21.590, 276.530 21.049 C 275.812 19.886, 263.804 14.040, 261.043 13.508 C 259.991 13.306, 258.237 12.662, 257.146 12.078 C 255.677 11.292, 255.031 11.338, 254.660 12.258 C 254.262 13.242, 254.141 13.240, 254.079 12.250 C 254.032 11.499, 252.579 11, 250.441 11 C 247.860 11, 247.088 11.343, 247.633 12.250 C 248.201 13.196, 247.996 13.185, 246.789 12.208 C 245.486 11.153, 245.100 11.153, 244.676 12.208 C 244.280 13.197, 244.139 13.207, 244.079 12.250 C 243.977 10.630, 242.918 10.669, 240.473 12.382 M 479 146.830 C 479 147.351, 478.438 147.757, 477.750 147.731 C 474.735 147.619, 472.919 148.060, 473.372 148.792 C 473.641 149.228, 473.086 149.643, 472.138 149.715 C 470.019 149.874, 457.148 155.951, 456.414 157.139 C 456.121 157.613, 455.009 158, 453.941 158 C 452.873 158, 452 158.477, 452 159.059 C 452 159.641, 451.522 159.822, 450.937 159.461 C 450.352 159.100, 449.002 159.593, 447.937 160.557 C 446.872 161.521, 446 162.005, 446 161.632 C 446 161.259, 444.952 161.641, 443.670 162.480 C 442.389 163.320, 441.039 163.705, 440.670 163.337 C 440.302 162.968, 440 163.192, 440 163.833 C 440 164.475, 439.155 165, 438.122 165 C 437.090 165, 435.689 165.670, 435.009 166.489 C 434.329 167.308, 433.411 167.754, 432.967 167.480 C 432.524 167.206, 431.562 167.548, 430.831 168.241 C 430.099 168.933, 429.050 169.504, 428.500 169.510 C 426.604 169.528, 415 175.275, 415 176.196 C 415 176.703, 414.591 176.865, 414.090 176.556 C 412.971 175.864, 409.859 176.963, 410.410 177.855 C 410.629 178.210, 409.628 178.571, 408.185 178.658 C 406.742 178.745, 405.400 179.299, 405.203 179.890 C 405.006 180.481, 403.100 181.434, 400.968 182.009 C 398.835 182.583, 396.398 183.745, 395.553 184.590 C 394.707 185.436, 393.562 185.847, 393.008 185.505 C 392.453 185.162, 392 185.385, 392 186 C 392 186.615, 391.550 186.840, 391 186.500 C 390.450 186.160, 390 186.359, 390 186.941 C 390 187.523, 389.653 187.887, 389.230 187.750 C 387.995 187.349, 380 191.213, 380 192.211 C 380 192.710, 379.591 192.865, 379.090 192.556 C 377.697 191.695, 374.926 193.071, 375.660 194.259 C 376.025 194.850, 375.833 195.015, 375.220 194.636 C 373.940 193.845, 364.887 198.008, 365.551 199.082 C 365.799 199.484, 365.032 199.560, 363.845 199.249 C 362.377 198.865, 361.914 199.051, 362.396 199.831 C 362.855 200.574, 362.558 200.768, 361.552 200.382 C 360.650 200.035, 360 200.319, 360 201.060 C 360 201.760, 359.706 202.039, 359.347 201.680 C 358.987 201.321, 357.187 201.957, 355.347 203.095 C 353.506 204.232, 352 204.846, 352 204.459 C 352 204.072, 351.438 204.198, 350.750 204.740 C 350.063 205.281, 348.244 206.024, 346.709 206.391 C 345.174 206.758, 344.185 207.490, 344.511 208.018 C 344.837 208.545, 344.464 208.731, 343.681 208.431 C 342.898 208.131, 341.992 208.578, 341.667 209.426 C 341.325 210.316, 340.427 210.717, 339.538 210.376 C 338.650 210.035, 338 210.324, 338 211.060 C 338 211.760, 337.727 212.060, 337.393 211.727 C 336.650 210.983, 325.821 215.672, 324.922 217.126 C 324.567 217.701, 324.102 218.063, 323.888 217.930 C 323.129 217.460, 316 220.416, 316 221.201 C 316 221.640, 315.663 221.926, 315.250 221.836 C 313.406 221.433, 309.075 223.312, 309.661 224.261 C 310.020 224.841, 309.833 225.015, 309.245 224.651 C 307.736 223.719, 304.881 224.999, 305.660 226.259 C 306.027 226.852, 305.832 227.014, 305.214 226.632 C 303.976 225.867, 290 231.812, 290 233.103 C 290 233.562, 289.410 233.711, 288.690 233.434 C 287.969 233.158, 285.719 234.059, 283.690 235.436 C 281.660 236.813, 279.993 237.616, 279.985 237.220 C 279.976 236.824, 279.533 237.175, 279 238 C 277.702 240.009, 277.643 435, 278.941 435 C 279.459 435, 280.203 434.480, 280.595 433.845 C 281.033 433.137, 280.870 432.962, 280.174 433.393 C 279.329 433.915, 279.095 409.184, 279.260 336.797 L 279.481 239.500 279.745 335.750 C 279.891 388.688, 280.388 432, 280.850 432 C 281.861 432, 285 428.656, 285 427.579 C 285 426.205, 288.718 422.052, 289.367 422.701 C 289.715 423.049, 290.010 422.696, 290.022 421.917 C 290.033 421.137, 291.608 419.154, 293.522 417.510 C 295.435 415.865, 297 413.926, 297 413.201 C 297 412.475, 297.385 412.120, 297.856 412.411 C 298.972 413.101, 310.603 400.969, 310.167 399.570 C 309.983 398.981, 310.172 398.839, 310.586 399.253 C 311 399.667, 313.710 397.577, 316.609 394.609 C 319.507 391.640, 322.079 389.413, 322.325 389.658 C 322.571 389.904, 323.664 388.972, 324.753 387.587 C 325.843 386.201, 326.925 385.259, 327.159 385.492 C 327.392 385.725, 329.139 384.586, 331.042 382.961 C 332.944 381.335, 334.820 380.004, 335.211 380.002 C 335.602 380.001, 336.727 379.146, 337.711 378.101 C 338.695 377.057, 341.413 375.212, 343.750 374 C 346.119 372.773, 348.007 371.068, 348.015 370.149 C 348.028 368.830, 348.204 368.774, 348.898 369.870 C 349.608 370.989, 349.941 370.927, 350.723 369.530 C 351.249 368.590, 352.089 367.749, 352.590 367.660 C 353.090 367.572, 353.393 367.179, 353.262 366.786 C 353.131 366.393, 353.694 366.329, 354.512 366.643 C 355.330 366.957, 356 366.716, 356 366.107 C 356 365.498, 356.839 365, 357.864 365 C 358.889 365, 360.991 363.762, 362.536 362.250 C 364.081 360.738, 365.009 360.175, 364.599 361 C 364.188 361.825, 364.519 361.683, 365.335 360.683 C 366.150 359.684, 367.086 358.902, 367.415 358.945 C 367.743 358.988, 370.696 357.668, 373.977 356.011 C 377.258 354.355, 380.631 353, 381.471 353 C 382.312 353, 383 352.602, 383 352.117 C 383 351.277, 385.321 350.277, 389.327 349.393 C 390.332 349.171, 391.852 348.291, 392.706 347.437 C 393.559 346.583, 394.875 346.122, 395.629 346.411 C 396.383 346.700, 397 346.597, 397 346.181 C 397 345.766, 397.972 345.352, 399.160 345.263 C 400.348 345.173, 401.590 344.663, 401.920 344.129 C 402.250 343.595, 403.757 342.848, 405.269 342.469 C 406.782 342.089, 408.254 341.398, 408.541 340.933 C 408.829 340.468, 409.725 340.341, 410.532 340.651 C 411.339 340.960, 412 340.758, 412 340.201 C 412 339.643, 412.970 339.441, 414.156 339.751 C 415.665 340.146, 416.092 339.957, 415.576 339.123 C 415.057 338.283, 415.595 338.069, 417.404 338.397 C 418.814 338.652, 420.231 338.435, 420.553 337.915 C 420.875 337.394, 421.557 337.226, 422.069 337.543 C 422.581 337.859, 423 337.613, 423 336.996 C 423 336.379, 423.788 335.974, 424.750 336.096 C 426.464 336.313, 431.020 335.405, 434 334.253 C 434.825 333.934, 435.837 333.578, 436.250 333.461 C 436.663 333.345, 437.113 333.159, 437.250 333.048 C 437.387 332.937, 438.850 332.713, 440.500 332.551 C 442.150 332.388, 444.625 331.951, 446 331.578 C 447.375 331.206, 450.525 330.713, 453 330.483 C 455.475 330.253, 458.850 329.873, 460.500 329.638 C 462.150 329.404, 465.439 329.164, 467.809 329.106 C 470.364 329.043, 471.870 328.599, 471.508 328.014 C 471.141 327.419, 472.150 327.173, 474.049 327.394 C 475.781 327.596, 478.054 327.537, 479.099 327.264 C 480.949 326.780, 481 324.360, 481 236.942 C 481 178.138, 480.655 146.905, 480 146.500 C 479.450 146.160, 479 146.309, 479 146.830 M 19 274.207 C 19 398.443, 19.198 407.525, 21.961 410 C 22.268 410.275, 23.405 412.188, 24.487 414.250 C 25.764 416.683, 27.165 418.005, 28.477 418.015 C 30.150 418.028, 30.240 418.199, 29 419 C 27.667 419.862, 27.667 419.984, 29 420.103 C 29.825 420.177, 30.837 420.184, 31.250 420.118 C 31.663 420.053, 32 420.450, 32 421 C 32 421.550, 32.927 422, 34.059 422 C 35.191 422, 35.840 422.450, 35.500 423 C 35.160 423.550, 35.616 424, 36.512 424 C 37.409 424, 38.822 424.679, 39.652 425.509 C 40.482 426.339, 41.575 426.763, 42.081 426.450 C 42.586 426.138, 43 426.282, 43 426.770 C 43 427.823, 52.316 432.333, 54.491 432.333 C 55.321 432.333, 56 432.735, 56 433.226 C 56 433.716, 56.450 433.840, 57 433.500 C 57.550 433.160, 58 433.324, 58 433.863 C 58 434.403, 59.688 435.388, 61.750 436.053 C 63.813 436.717, 65.991 437.648, 66.592 438.122 C 67.193 438.595, 67.980 438.687, 68.342 438.325 C 68.704 437.963, 69 438.267, 69 439 C 69 439.733, 69.279 440.055, 69.619 439.714 C 69.960 439.374, 70.918 439.775, 71.748 440.605 C 72.578 441.436, 73.898 441.869, 74.681 441.569 C 75.464 441.269, 75.875 441.393, 75.595 441.845 C 75.050 442.728, 85.504 447.454, 88 447.453 C 88.825 447.453, 90.095 448.026, 90.821 448.726 C 91.548 449.427, 93.051 450, 94.161 450 C 95.271 450, 96.927 450.923, 97.841 452.052 C 98.755 453.181, 100.177 454.235, 101.001 454.396 C 105.224 455.217, 108 456.317, 108 457.167 C 108 457.690, 108.450 457.840, 109 457.500 C 109.550 457.160, 110 457.297, 110 457.805 C 110 458.670, 117.440 461.948, 120.384 462.380 C 121.118 462.488, 122.489 463.346, 123.431 464.288 C 124.372 465.230, 125.761 466, 126.516 466 C 127.272 466, 131.041 467.582, 134.893 469.515 C 138.745 471.448, 143.262 473.302, 144.932 473.636 C 146.601 473.970, 147.723 474.639, 147.425 475.122 C 146.960 475.874, 148.360 476.219, 150.638 475.915 C 150.989 475.868, 151.613 476.374, 152.024 477.040 C 152.436 477.705, 153.949 478.250, 155.386 478.250 C 156.830 478.250, 158 478.817, 158 479.518 C 158 480.981, 160.747 482.275, 162.090 481.444 C 162.591 481.135, 163 481.385, 163 482 C 163 482.615, 163.450 482.840, 164 482.500 C 164.550 482.160, 165 482.359, 165 482.941 C 165 483.523, 165.862 484, 166.917 484 C 167.971 484, 168.983 484.409, 169.167 484.908 C 169.350 485.408, 170.400 485.971, 171.500 486.158 C 172.600 486.346, 174.095 487.063, 174.821 487.750 C 175.548 488.438, 177.011 489, 178.071 489 C 179.132 489, 180 489.436, 180 489.969 C 180 490.501, 180.671 490.680, 181.492 490.365 C 182.343 490.038, 183.247 490.481, 183.599 491.396 C 183.937 492.278, 184.587 493, 185.042 493 C 185.497 493, 187.137 493.482, 188.685 494.070 C 190.233 494.659, 191.725 495.141, 192 495.142 C 192.275 495.142, 193.287 495.855, 194.250 496.726 C 195.212 497.597, 196 498.042, 196 497.714 C 196 497.387, 197.205 497.744, 198.678 498.508 C 200.151 499.272, 201.839 499.624, 202.428 499.288 C 203.018 498.953, 203.155 499.059, 202.734 499.522 C 201.773 500.580, 211.033 505.165, 212.802 504.507 C 213.590 504.214, 213.824 504.476, 213.396 505.169 C 212.915 505.946, 213.371 506.136, 214.809 505.760 C 216.112 505.419, 216.848 505.648, 216.716 506.353 C 216.597 506.984, 217.175 507.500, 218 507.500 C 219.325 507.500, 219.530 491.753, 219.754 372.787 C 220.007 238.430, 220.002 238.071, 217.983 236.991 C 216.870 236.395, 215.405 236.225, 214.729 236.614 C 214.053 237.003, 213.831 236.955, 214.235 236.509 C 214.905 235.768, 210.888 233.045, 208.500 232.621 C 207.950 232.524, 206.938 232.092, 206.250 231.663 C 205.562 231.233, 205 231.166, 205 231.512 C 205 231.859, 204.293 231.436, 203.429 230.571 C 202.564 229.707, 201.079 229, 200.129 229 C 199.178 229, 197.860 228.460, 197.200 227.800 C 196.540 227.140, 195.993 227.027, 195.985 227.550 C 195.976 228.072, 195.594 227.908, 195.135 227.184 C 194.675 226.459, 193.603 225.765, 192.751 225.640 C 191.899 225.515, 190.504 224.833, 189.651 224.125 C 188.797 223.417, 187.515 222.734, 186.800 222.608 C 186.085 222.481, 182.742 220.964, 179.370 219.235 C 175.999 217.507, 172.962 216.372, 172.620 216.713 C 172.279 217.054, 172 216.844, 172 216.246 C 172 215.213, 166.425 213.378, 164.676 213.834 C 164.222 213.953, 164.077 213.684, 164.354 213.237 C 164.630 212.790, 163.426 211.847, 161.678 211.141 C 159.930 210.435, 157.326 209.227, 155.890 208.455 C 154.455 207.684, 152.992 207.341, 152.640 207.693 C 152.288 208.045, 152 207.808, 152 207.167 C 152 206.525, 151.413 206, 150.696 206 C 149.979 206, 145.256 203.947, 140.200 201.439 C 135.144 198.930, 130.486 197.200, 129.849 197.593 C 129.190 198, 128.960 197.874, 129.314 197.301 C 130.025 196.151, 125.880 194, 122.953 194 C 121.879 194, 121 193.580, 121 193.067 C 121 192.189, 118.224 190.923, 115.100 190.378 C 114.330 190.243, 113.368 189.595, 112.962 188.938 C 112.536 188.249, 111.647 188.077, 110.862 188.532 C 110.113 188.966, 109.845 188.941, 110.267 188.477 C 111.237 187.409, 105.158 184.784, 103.742 185.659 C 103.128 186.039, 102.987 185.829, 103.405 185.155 C 103.797 184.520, 103.605 184, 102.978 184 C 102.351 184, 98.751 182.451, 94.979 180.558 C 91.206 178.664, 87.305 176.977, 86.310 176.808 C 85.314 176.638, 84.221 176.119, 83.881 175.652 C 83.540 175.186, 82.115 174.736, 80.715 174.652 C 79.314 174.569, 78.349 174.319, 78.569 174.098 C 79.052 173.615, 74.178 171, 72.793 171 C 72.256 171, 70.679 170.106, 69.290 169.014 C 67.901 167.921, 66.368 167.273, 65.882 167.573 C 65.397 167.873, 65 167.615, 65 167 C 65 166.385, 64.550 166.160, 64 166.500 C 63.450 166.840, 63 166.641, 63 166.059 C 63 165.477, 62.663 165.096, 62.250 165.212 C 61.837 165.329, 60.452 164.845, 59.172 164.135 C 57.891 163.426, 56.181 163.100, 55.370 163.412 C 54.521 163.737, 54.162 163.547, 54.523 162.963 C 55.113 162.008, 49.371 159.312, 47.750 159.782 C 47.337 159.902, 47 159.523, 47 158.941 C 47 158.359, 46.550 158.160, 46 158.500 C 45.450 158.840, 45 158.641, 45 158.059 C 45 157.477, 44.100 157, 43 157 C 41.900 157, 41 156.550, 41 156 C 41 155.450, 40.663 155.096, 40.250 155.212 C 39.837 155.329, 38.487 154.863, 37.250 154.177 C 36.013 153.491, 35 153.240, 35 153.620 C 35 153.999, 34.212 153.673, 33.250 152.894 C 30.022 150.282, 25.065 147.913, 22.019 147.528 L 19 147.146 19 274.207 M 557.693 310.313 C 557.972 310.764, 557.593 311.050, 556.850 310.948 C 552.911 310.408, 550.618 311.457, 545.804 316 C 542.890 318.750, 540.858 321, 541.288 321 C 541.718 321, 541.514 322.012, 540.833 323.250 C 538.767 327.009, 538.718 327.621, 538.279 355.256 L 537.855 382.011 511.177 382.011 C 483.398 382.011, 482.297 382.058, 480.250 383.337 C 479.530 383.787, 479 383.644, 479 383 C 479 382.357, 478.469 382.213, 477.750 382.661 C 477.063 383.090, 475.600 383.543, 474.500 383.668 C 473.400 383.793, 470.618 384.099, 468.317 384.347 C 466.016 384.596, 463.584 385.139, 462.913 385.554 C 462.133 386.036, 461.948 385.892, 462.403 385.158 C 462.934 384.298, 462.402 384.278, 460.307 385.077 C 458.763 385.666, 455.925 386.349, 454 386.593 C 452.075 386.838, 449.825 387.239, 449 387.483 C 448.175 387.728, 445.925 388.194, 444 388.520 C 442.075 388.845, 440.108 389.501, 439.628 389.977 C 439.149 390.454, 438.136 390.606, 437.378 390.315 C 436.620 390.024, 436 390.311, 436 390.952 C 436 391.593, 435.581 391.859, 435.069 391.543 C 434.557 391.226, 433.880 391.385, 433.565 391.895 C 433.250 392.405, 432.206 392.706, 431.246 392.565 C 430.286 392.423, 428.904 393.026, 428.176 393.904 C 427.448 394.782, 427.137 394.938, 427.485 394.250 C 428.190 392.859, 426.427 392.500, 425.585 393.863 C 425.291 394.337, 423.023 395.294, 420.544 395.988 C 418.065 396.682, 416.251 397.596, 416.512 398.020 C 416.774 398.444, 416.293 399.057, 415.442 399.384 C 414.557 399.724, 414.157 399.555, 414.507 398.989 C 414.843 398.445, 414.641 398, 414.059 398 C 413.477 398, 413 398.477, 413 399.059 C 413 399.641, 412.550 399.840, 412 399.500 C 411.450 399.160, 411 399.359, 411 399.941 C 411 400.523, 410.663 400.896, 410.250 400.769 C 409.548 400.553, 403.741 403.064, 396.250 406.824 C 394.462 407.721, 393 408.829, 393 409.286 C 393 409.744, 392.655 409.905, 392.232 409.644 C 391.338 409.091, 383.782 413.449, 384.459 414.126 C 384.710 414.376, 383.928 414.655, 382.722 414.746 C 381.516 414.837, 380.373 415.381, 380.181 415.956 C 379.990 416.530, 379.196 417, 378.417 417 C 377.637 417, 377 417.450, 377 418 C 377 418.550, 376.325 419, 375.500 419 C 374.675 419, 374 419.450, 374 420 C 374 420.550, 373.325 421, 372.500 421 C 371.675 421, 371 421.450, 371 422 C 371 422.550, 370.530 423, 369.955 423 C 368.593 423, 363.989 427.605, 364.561 428.394 C 364.802 428.727, 364.718 428.793, 364.373 428.540 C 363.075 427.587, 358.221 431.151, 349.750 439.278 C 344.938 443.895, 341 448.197, 341 448.837 C 341 449.476, 340.618 449.888, 340.152 449.750 C 339.686 449.613, 337.383 451.413, 335.034 453.750 C 332.686 456.087, 331.155 458.029, 331.632 458.063 C 332.110 458.098, 331.488 458.534, 330.250 459.031 C 329.012 459.529, 328 460.625, 328 461.468 C 328 462.310, 327.550 463, 327 463 C 326.450 463, 326 463.471, 326 464.048 C 326 464.624, 324.875 466.138, 323.500 467.412 C 322.125 468.687, 321 470.240, 321 470.865 C 321 471.489, 320.655 472, 320.234 472 C 319.153 472, 312.667 482.098, 312.667 483.781 C 312.667 484.546, 311.621 485.858, 310.342 486.696 C 309.063 487.533, 308.265 488.620, 308.568 489.109 C 308.870 489.599, 308.593 490, 307.952 490 C 307.311 490, 307.045 490.675, 307.362 491.500 C 307.678 492.325, 307.501 493, 306.969 493 C 306.436 493, 306 493.702, 306 494.559 C 306 495.416, 305.634 495.892, 305.188 495.616 C 304.512 495.198, 297.261 509.412, 296.951 511.761 C 296.898 512.168, 296.033 513.850, 295.029 515.500 C 293.478 518.048, 290.324 526.147, 289.577 529.500 C 289.454 530.050, 288.574 532.300, 287.621 534.500 C 284.634 541.395, 287.301 553.009, 292.231 554.573 C 293.220 554.887, 293.771 555.562, 293.456 556.072 C 293.140 556.582, 293.838 557, 295.007 557 C 296.175 557, 297.952 557.439, 298.954 557.976 C 301.147 559.149, 305.491 559.398, 309.260 558.566 C 312.471 557.858, 319.756 554.203, 320.564 552.896 C 320.869 552.403, 321.829 552, 322.699 552 C 323.568 552, 324.925 551.212, 325.714 550.250 C 326.503 549.288, 326.863 549.063, 326.515 549.750 C 326.167 550.438, 326.163 551, 326.507 551 C 327.650 551, 331.490 548.716, 332.208 547.609 C 332.598 547.009, 333.498 546.470, 334.208 546.411 C 337.569 546.134, 338.080 545.939, 337.577 545.125 C 337.280 544.644, 338.828 543.963, 341.018 543.613 C 343.208 543.263, 345 542.505, 345 541.929 C 345 541.353, 345.450 541.160, 346 541.500 C 346.550 541.840, 347 541.615, 347 541 C 347 540.385, 347.399 540.129, 347.887 540.430 C 348.374 540.731, 349.325 540.313, 350 539.500 C 350.675 538.687, 351.558 538.227, 351.964 538.478 C 352.370 538.728, 354.186 537.838, 356 536.500 C 357.814 535.162, 359.681 534.303, 360.149 534.592 C 360.617 534.881, 361 534.566, 361 533.892 C 361 533.218, 361.296 532.963, 361.658 533.325 C 362.020 533.687, 362.920 533.481, 363.658 532.869 C 364.396 532.256, 365 532.090, 365 532.500 C 365 532.910, 365.636 532.717, 366.413 532.072 C 367.191 531.427, 369.094 530.669, 370.642 530.388 C 372.190 530.108, 373.798 529.343, 374.213 528.689 C 374.629 528.035, 374.976 527.893, 374.985 528.372 C 374.993 528.852, 375.604 528.744, 376.342 528.131 C 377.080 527.519, 377.980 527.313, 378.342 527.675 C 378.704 528.037, 379 527.808, 379 527.167 C 379 526.525, 379.900 526, 381 526 C 382.100 526, 383 525.598, 383 525.107 C 383 524.616, 383.698 523.946, 384.552 523.618 C 385.442 523.277, 385.843 523.445, 385.493 524.011 C 384.781 525.164, 386.313 525.354, 387.417 524.250 C 388.126 523.541, 388.491 523.428, 391.059 523.125 C 391.641 523.056, 391.911 522.663, 391.657 522.250 C 391.404 521.837, 392.550 521.450, 394.204 521.388 C 395.858 521.327, 397.501 520.877, 397.856 520.388 C 398.210 519.900, 399.605 519.376, 400.956 519.225 C 402.307 519.074, 403.724 518.446, 404.105 517.830 C 404.486 517.213, 405.519 516.985, 406.399 517.323 C 407.280 517.661, 408 517.515, 408 517 C 408 516.485, 408.617 516.300, 409.371 516.589 C 410.125 516.878, 411.475 516.382, 412.371 515.486 C 413.267 514.590, 414 514.355, 414 514.964 C 414 515.694, 414.595 515.764, 415.750 515.170 C 416.712 514.675, 418.125 514.493, 418.889 514.765 C 419.653 515.037, 420.004 514.816, 419.669 514.274 C 419.310 513.693, 420.025 513.473, 421.413 513.739 C 422.707 513.986, 424.058 513.716, 424.415 513.138 C 424.772 512.560, 425.725 512.341, 426.532 512.651 C 427.339 512.960, 428 512.742, 428 512.164 C 428 511.587, 428.900 511.288, 430 511.500 C 431.100 511.712, 432 511.557, 432 511.157 C 432 510.756, 432.788 510.367, 433.750 510.292 C 434.712 510.216, 436.962 510.051, 438.750 509.925 C 440.538 509.799, 442 509.411, 442 509.062 C 442 508.714, 442.788 508.387, 443.750 508.335 C 444.712 508.284, 447.300 507.938, 449.500 507.566 C 456.064 506.457, 460.122 505.984, 467.500 505.468 C 476.402 504.845, 478.264 504.573, 479.698 503.686 C 480.338 503.291, 481.149 503.432, 481.500 504 C 481.851 504.568, 482.598 504.749, 483.159 504.402 C 483.721 504.055, 496.290 503.550, 511.090 503.279 L 538 502.788 538 527.345 C 538 541.250, 538.475 554.200, 539.095 557.201 C 540.250 562.787, 544.621 570.352, 546.149 569.408 C 546.644 569.102, 546.926 569.396, 546.775 570.062 C 546.624 570.728, 547.812 571.643, 549.415 572.094 C 551.018 572.546, 552.607 573.364, 552.946 573.912 C 553.821 575.328, 567 576.102, 567 574.738 C 567 574.149, 567.263 573.930, 567.585 574.252 C 568.543 575.210, 573.960 572.923, 573.721 571.662 C 573.599 571.023, 574.254 570.624, 575.175 570.777 C 576.096 570.929, 577.446 570.254, 578.175 569.277 C 578.904 568.299, 580.772 566.843, 582.327 566.040 C 583.883 565.236, 585.586 563.774, 586.113 562.790 C 586.639 561.805, 587.621 561, 588.295 561 C 588.968 561, 590.081 560.100, 590.768 559 C 591.455 557.900, 592.597 557, 593.307 557 C 594.016 557, 596.150 555.439, 598.048 553.532 C 599.947 551.624, 602.037 550.049, 602.693 550.032 C 603.350 550.014, 604.587 549, 605.443 547.777 C 606.299 546.555, 607.014 545.993, 607.032 546.527 C 607.049 547.062, 607.744 546.600, 608.575 545.500 C 609.406 544.400, 610.404 543.500, 610.793 543.500 C 611.182 543.500, 611.387 543.163, 611.250 542.750 C 611.112 542.337, 611.900 542, 613 542 C 614.100 542, 615 541.597, 615 541.104 C 615 540.612, 617.250 538.765, 620 537 C 622.750 535.235, 625 533.587, 625 533.337 C 625 533.087, 624.438 533.200, 623.750 533.588 C 622.892 534.072, 622.814 533.956, 623.500 533.218 C 624.050 532.627, 625.137 531.998, 625.917 531.821 C 627.316 531.504, 628.742 530.456, 633.230 526.447 C 634.494 525.319, 636.338 524.084, 637.328 523.705 C 638.366 523.306, 638.823 522.523, 638.409 521.853 C 637.994 521.181, 638.125 520.959, 638.720 521.327 C 639.285 521.676, 640.953 520.846, 642.426 519.481 C 643.898 518.117, 645.530 517, 646.052 517 C 646.573 517, 647 516.550, 647 516 C 647 515.450, 647.575 515, 648.278 515 C 649.831 515, 653.069 511.402, 652.251 510.585 C 651.930 510.263, 652.594 510, 653.728 510 C 654.861 510, 657.299 508.557, 659.144 506.793 C 660.990 505.029, 662.791 503.664, 663.147 503.758 C 663.502 503.853, 665.430 502.388, 667.430 500.501 C 669.430 498.615, 671.389 497.029, 671.784 496.978 C 672.178 496.927, 673.792 495.734, 675.371 494.327 C 676.950 492.920, 680.204 490.445, 682.602 488.826 C 685 487.208, 688.209 484.646, 689.731 483.133 C 691.254 481.621, 693.962 479.525, 695.750 478.476 C 697.538 477.427, 699 476.237, 699 475.831 C 699 475.426, 700.616 474.327, 702.592 473.389 C 704.567 472.452, 706.415 471.081, 706.699 470.342 C 706.982 469.604, 707.841 469, 708.607 469 C 709.373 469, 710.001 468.663, 710.002 468.250 C 710.003 467.837, 712.018 466.150, 714.480 464.500 C 716.942 462.850, 718.966 460.964, 718.978 460.309 C 718.990 459.654, 719.520 458.797, 720.155 458.405 C 720.921 457.931, 721.052 458.164, 720.545 459.095 C 720.124 459.868, 720.959 459.150, 722.399 457.500 C 723.840 455.850, 725.295 453.262, 725.634 451.750 C 725.973 450.238, 726.614 449, 727.058 449 C 727.848 449, 728.142 446.038, 728.050 439 C 727.995 434.811, 724.366 427.266, 721.727 425.854 C 720.688 425.298, 718.226 423.322, 716.255 421.464 C 714.285 419.605, 712.296 418.317, 711.836 418.601 C 711.376 418.885, 711 418.693, 711 418.174 C 711 417.004, 706.024 413.667, 704.281 413.667 C 703.576 413.667, 703.218 413.449, 703.484 413.183 C 704.251 412.416, 699.058 408, 697.389 408 C 696.560 408, 696.161 407.549, 696.501 406.998 C 696.842 406.447, 695.968 405.558, 694.560 405.023 C 693.152 404.488, 692 403.513, 692 402.858 C 692 402.203, 691.728 401.939, 691.395 402.272 C 691.062 402.604, 689.825 401.877, 688.645 400.655 C 687.465 399.434, 685.150 397.591, 683.500 396.560 C 681.850 395.529, 680.140 394.081, 679.700 393.343 C 679.260 392.604, 678.348 392, 677.673 392 C 676.997 392, 675.734 391.212, 674.865 390.250 C 672.914 388.088, 670.406 386.084, 666.500 383.567 C 664.850 382.503, 663.009 381.153, 662.408 380.567 C 661.808 379.980, 659.832 378.375, 658.017 377 C 656.202 375.625, 653.333 373.296, 651.643 371.824 C 649.952 370.353, 648.216 369.367, 647.784 369.633 C 647.353 369.900, 647 369.693, 647 369.174 C 647 368.004, 642.024 364.667, 640.281 364.667 C 639.576 364.667, 639.218 364.449, 639.484 364.183 C 640.251 363.416, 635.058 359, 633.389 359 C 632.560 359, 632.161 358.549, 632.501 357.998 C 632.842 357.447, 631.968 356.558, 630.560 356.023 C 629.152 355.488, 628 354.513, 628 353.858 C 628 353.203, 627.728 352.939, 627.395 353.272 C 627.062 353.604, 625.825 352.877, 624.645 351.655 C 623.465 350.434, 621.150 348.591, 619.500 347.560 C 617.850 346.529, 616.140 345.081, 615.700 344.343 C 615.260 343.604, 614.348 343, 613.673 343 C 612.997 343, 611.734 342.212, 610.865 341.250 C 608.914 339.088, 606.406 337.084, 602.500 334.567 C 600.850 333.503, 599.009 332.153, 598.408 331.567 C 597.808 330.980, 595.832 329.375, 594.017 328 C 592.202 326.625, 589.333 324.296, 587.643 322.824 C 585.952 321.353, 584.216 320.367, 583.784 320.633 C 583.353 320.900, 583 320.693, 583 320.174 C 583 319.020, 578.034 315.667, 576.325 315.667 C 575.645 315.667, 575.308 315.311, 575.576 314.877 C 576.320 313.673, 571.255 310.725, 569.889 311.568 C 569.131 312.037, 568.953 311.885, 569.405 311.155 C 569.838 310.453, 569.408 309.957, 568.309 309.892 C 561.090 309.459, 557.260 309.611, 557.693 310.313" stroke="none" fill="#5c6cdc" fill-rule="evenodd"/></svg>